<svg id="グループ_26" data-name="グループ 26" xmlns="http://www.w3.org/2000/svg" width="97" height="98" viewBox="0 0 97 98">
  <defs>
    <style>
      .cls-1 {
        fill: #998c77;
        fill-rule: evenodd;
      }
    </style>
  </defs>
  <g id="グループ_24" data-name="グループ 24">
    <path id="_01" data-name="01" class="cls-1" d="M13.125,21.588A9.889,9.889,0,0,1,22.4,16.38a10.4,10.4,0,0,1,9.458,5.445Q35.117,27.27,35.117,38q0,10.943-2.985,16.256A9.875,9.875,0,0,1,22.9,59.572q-6.153,0-9.436-5.945T10.187,37.266Q10.187,26.8,13.125,21.588Zm25.929-2.736Q33.169,12.382,23.2,12.382q-10.257,0-16.544,7.1T0.365,38.634q0,11.732,6,18.413t15.788,6.681a20.752,20.752,0,0,0,16.473-7.286q6.31-7.286,6.311-19.6Q44.939,25.323,39.054,18.853Zm30.787-4.659q0.28,15.9.281,36.522v17.03q0,10.156-.14,18.466-0.071,2.565-1.894,3.283L56.651,93.7l0.281,4.1Q69.84,97.5,76.717,97.5T96.572,97.8l-0.21-4.1L85.206,89.494q-1.894-.716-1.964-3.693-0.141-8.31-.14-21.851V38.918q0-19.081.842-37.035l-0.631-.821q-14.1,3.693-28.2,6.771l0.351,4.309Z"/>
  </g>
</svg>
