<svg id="グループ_26" data-name="グループ 26" xmlns="http://www.w3.org/2000/svg" width="108" height="98" viewBox="0 0 108 98">
  <defs>
    <style>
      .cls-1 {
        fill: #998c77;
        fill-rule: evenodd;
      }
    </style>
  </defs>
  <g id="グループ_25" data-name="グループ 25">
    <path id="_02" data-name="02" class="cls-1" d="M13.65,21.9a9.9,9.9,0,0,1,9.278-5.2,10.408,10.408,0,0,1,9.461,5.437q3.261,5.437,3.261,16.154,0,10.928-2.986,16.233a9.882,9.882,0,0,1-9.231,5.306q-6.156,0-9.439-5.936T10.711,37.555Q10.711,27.1,13.65,21.9Zm25.939-2.732Q33.7,12.706,23.725,12.706q-10.261,0-16.551,7.092T0.885,38.921q0,11.716,6.005,18.387T22.684,63.98A20.777,20.777,0,0,0,39.164,56.7q6.312-7.276,6.313-19.569Q45.477,25.629,39.589,19.167Zm59.819,62.96H64.525l-0.07-.512q8.492-7.376,15.09-13.983A102.051,102.051,0,0,0,90.7,54.571a54.437,54.437,0,0,0,6.949-13.164,42.967,42.967,0,0,0,2.387-14.5q0-12.5-6.563-19.515A21.594,21.594,0,0,0,77.019.378q-13.2,0-26.32,13.01l2.667,6.761Q61.507,13.8,69.509,13.8A14.561,14.561,0,0,1,81.019,19.33q4.7,5.532,4.7,14.957a36.109,36.109,0,0,1-1.053,8.81,41.126,41.126,0,0,1-3.053,8.247,57.909,57.909,0,0,1-4.948,8.144q-2.948,4.1-6.808,8.605Q66,72.7,60.735,78.03T48.874,89.606l0.491,8.4Q61.577,97.7,76.106,97.7q15.651,0,29.97.307l0.491-.717,1.4-32.884-3.088.82Z"/>
  </g>
</svg>
