<svg id="グループ_26" data-name="グループ 26" xmlns="http://www.w3.org/2000/svg" width="106" height="112" viewBox="0 0 106 112">
  <defs>
    <style>
      .cls-1 {
        fill: #998c77;
        fill-rule: evenodd;
      }
    </style>
  </defs>
  <g id="グループ_25" data-name="グループ 25">
    <path id="_03" data-name="03" class="cls-1" d="M13.65,16.519q2.939-5.2,9.278-5.2a10.408,10.408,0,0,1,9.461,5.437q3.261,5.437,3.261,16.155,0,10.927-2.986,16.233a9.882,9.882,0,0,1-9.231,5.306q-6.156,0-9.439-5.936T10.711,32.174Q10.711,21.72,13.65,16.519Zm25.939-2.732Q33.7,7.325,23.725,7.325q-10.261,0-16.551,7.092T0.885,33.54q0,11.716,6.005,18.387T22.684,58.6a20.777,20.777,0,0,0,16.479-7.276q6.312-7.276,6.313-19.569Q45.477,20.249,39.589,13.787Zm19.6,41.5a47.069,47.069,0,0,1,8.984-.946q10.6,0,16.564,5.595T90.7,75.305q0,12.45-11.475,20.764T44.662,106.117l0.772,5.831q29.057-1.1,44.534-11.82T105.444,73.1A22.943,22.943,0,0,0,98.39,56.077q-7.054-6.933-20.249-7.486V48.276q23.02-8.668,23.022-26.162A18.367,18.367,0,0,0,93.337,6.708,30.291,30.291,0,0,0,74.632.837q-14.67,0-28.566,10.244l2.878,5.2q10.107-5.91,20-5.91a17.573,17.573,0,0,1,12.528,4.649,15.794,15.794,0,0,1,4.948,12.057,18.228,18.228,0,0,1-7.58,15.13q-7.58,5.833-20.144,7.329Z"/>
  </g>
</svg>
