<svg id="グループ_26" data-name="グループ 26" xmlns="http://www.w3.org/2000/svg" width="118" height="110" viewBox="0 0 118 110">
  <defs>
    <style>
      .cls-1 {
        fill: #998c77;
        fill-rule: evenodd;
      }
    </style>
  </defs>
  <g id="グループ_25" data-name="グループ 25">
    <path id="_04_" data-name="04 " class="cls-1" d="M13.4,16.519a9.892,9.892,0,0,1,9.275-5.2,10.4,10.4,0,0,1,9.458,5.438q3.26,5.438,3.26,16.155,0,10.928-2.985,16.234a9.878,9.878,0,0,1-9.228,5.306q-6.153,0-9.436-5.937T10.466,32.175Q10.466,21.721,13.4,16.519Zm25.93-2.732Q33.449,7.325,23.475,7.325q-10.258,0-16.545,7.092T0.643,33.541q0,11.716,6,18.388T22.435,58.6a20.766,20.766,0,0,0,16.474-7.276q6.31-7.276,6.311-19.57Q45.219,20.249,39.334,13.787ZM88.186,63.96H56.613Q64.331,51.9,72.295,40.555T88.186,19.2V63.96Zm12.98,7.8q8.63,0,16.348.236l-0.281-8.038H101.166V33.777q0-15.288.421-32.94l-8.209.552Q81.45,16.914,69.7,33.344t-22.838,32.9L47.352,72q13.751-.236,23.364-0.236h17.47V86.183q0,11.426-.14,22.459l0.7,0.63q6.033-1.262,12.769-2.048-0.352-11.271-.351-22.3V71.761Z"/>
  </g>
</svg>
