<svg id="グループ_26" data-name="グループ 26" xmlns="http://www.w3.org/2000/svg" width="106" height="110" viewBox="0 0 106 110">
  <defs>
    <style>
      .cls-1 {
        fill: #998c77;
        fill-rule: evenodd;
      }
    </style>
  </defs>
  <g id="グループ_25" data-name="グループ 25">
    <path id="_05_" data-name="05 " class="cls-1" d="M13.043,13.966q2.937-5.192,9.273-5.192A10.4,10.4,0,0,1,31.772,14.2q3.26,5.428,3.26,16.125,0,10.908-2.984,16.2a9.879,9.879,0,0,1-9.226,5.3q-6.152,0-9.434-5.926T10.106,29.593Q10.106,19.158,13.043,13.966Zm25.925-2.727q-5.884-6.45-15.855-6.45-10.256,0-16.542,7.079T0.285,30.957q0,11.695,6,18.354t15.785,6.66a20.776,20.776,0,0,0,16.47-7.263q6.309-7.263,6.31-19.534Q44.852,17.689,38.968,11.239ZM53.017,46.532A53.259,53.259,0,0,1,65.995,44.88q12.766,0,19.817,6.45t7.05,18.17q0,15.18-12.03,24.149T49.65,103.4l0.7,5.821q24.341-.159,39.914-11.76t15.573-31.11q0-15.259-9.119-23.991T71.536,33.631a61.975,61.975,0,0,0-11.224,1.1L62.277,12.55l39.826,1.1L103.74,0.672l-0.392-.629Q91.737,0.358,77.639.358q-12.205,0-20.974-.315L52.6,45.981Z"/>
  </g>
</svg>
